<svg width="32" height="32" viewBox="0 0 32 32" fill="none" xmlns="http://www.w3.org/2000/svg">
<g clip-path="url(#clip0_25_1122)" filter="url(#filter0_d_25_1122)">
<path d="M7.36834 19.1304L9.625 20.2585V22.7813C9.625 23.0401 9.83491 23.25 10.0938 23.25H15.0625C15.3213 23.25 15.5312 23.0401 15.5312 22.7813V16.6617C15.5312 15.2256 14.4539 14.0346 13.0285 13.8917C13.023 13.8902 11.0457 13.5815 10.1284 12.6641L9.07567 11.6119C8.72148 11.2576 8.25067 11.0625 7.75 11.0625V7.3125C7.75 6.27863 6.90887 5.4375 5.875 5.4375C4.84113 5.4375 4 6.27863 4 7.3125V13.68C4 14.8124 4.31472 15.9202 4.91008 16.8835C5.50539 17.8469 6.35547 18.6238 7.36834 19.1304ZM4.9375 7.3125C4.9375 6.79556 5.35806 6.375 5.875 6.375C6.39194 6.375 6.8125 6.79556 6.8125 7.3125V11.3138C6.24081 11.6444 5.875 12.2607 5.875 12.9375C5.875 13.4381 6.07009 13.9089 6.42433 14.2631L8.8248 16.6641C9.00775 16.8471 9.30461 16.8472 9.4877 16.6641C9.67075 16.4811 9.6708 16.1843 9.48775 16.0012L7.08728 13.6002C6.91009 13.4231 6.8125 13.1877 6.8125 12.9375C6.8125 12.5408 7.06361 12.1854 7.43744 12.0534C7.43758 12.0533 7.43772 12.0533 7.43786 12.0532H7.43791C7.76116 11.9386 8.14464 12.0066 8.41286 12.2748L9.46558 13.3271C10.5524 14.4139 12.927 14.8229 12.9317 14.8242C13.8792 14.9192 14.5938 15.7092 14.5938 16.6617V22.3125H10.5625V19.9688C10.5625 19.7912 10.4621 19.6289 10.3034 19.5495L7.78764 18.2918C6.02964 17.4127 4.9375 15.6455 4.9375 13.68V7.3125Z" fill="#84BE51"/>
<path d="M15.5312 11.5313C15.5312 11.7902 15.7412 12 16 12C16.2588 12 16.4688 11.7902 16.4688 11.5313V10.125H18.2631C20.8923 10.125 23.0312 7.98606 23.0312 5.35689V3.09376C23.0312 2.9042 22.917 2.73325 22.7419 2.66069C22.5667 2.58812 22.3651 2.62825 22.231 2.76231C21.715 3.27836 21.029 3.56251 20.2994 3.56251C18.7316 3.56251 17.3383 4.32316 16.4688 5.49466V1.21876C16.4688 0.959874 16.2588 0.750015 16 0.750015C15.7412 0.750015 15.5312 0.959874 15.5312 1.21876V3.6197C14.6617 2.4482 13.2684 1.68751 11.7006 1.68751C10.971 1.68751 10.285 1.40336 9.76895 0.887311C9.63494 0.753249 9.43328 0.713077 9.25811 0.785686C9.08298 0.858296 8.96875 1.0292 8.96875 1.21876V3.48189C8.96875 6.11106 11.1077 8.25001 13.7369 8.25001H15.5312V11.5313ZM20.2994 4.50001C20.938 4.50001 21.5519 4.33792 22.0938 4.03319V5.35689C22.0938 7.46912 20.3754 9.18751 18.2631 9.18751H17.4062L20.0312 7.21876C20.2383 7.06347 20.2803 6.76961 20.125 6.56251C19.9697 6.35542 19.6759 6.31337 19.4688 6.46876L16.4688 8.71876V8.33064C16.4688 6.21845 18.1871 4.50001 20.2994 4.50001ZM9.90625 3.48189V2.15819C10.4482 2.46292 11.062 2.62501 11.7006 2.62501C13.8129 2.62501 15.5312 4.34345 15.5312 6.45564V6.84376L12.5312 4.59376C12.3242 4.43847 12.0303 4.48042 11.875 4.68751C11.7197 4.89461 11.7617 5.18847 11.9688 5.34376L14.5938 7.31251H13.7369C11.6246 7.31251 9.90625 5.59412 9.90625 3.48189Z" fill="#84BE51"/>
<path d="M25.5156 18.4688C25.7745 18.4688 25.9844 18.2589 25.9844 18C25.9844 17.7411 25.7745 17.5312 25.5156 17.5312C25.2567 17.5312 25.0469 17.7411 25.0469 18C25.0469 18.2589 25.2567 18.4688 25.5156 18.4688Z" fill="#84BE51"/>
<path d="M26.125 5.4375C25.0911 5.4375 24.25 6.27863 24.25 7.3125V11.0625C23.7493 11.0625 23.2785 11.2576 22.9244 11.6117L21.8715 12.6642C20.9745 13.5613 18.9796 13.89 18.9748 13.8914C17.5461 14.0347 16.4688 15.2256 16.4688 16.6618V22.7813C16.4688 23.0401 16.6787 23.25 16.9375 23.25H21.9062C22.1651 23.25 22.375 23.0401 22.375 22.7813V20.2585L23.9092 19.4915C24.1407 19.3757 24.2346 19.0942 24.1189 18.8626C24.0032 18.6311 23.7217 18.5372 23.49 18.6529L21.6966 19.5494C21.5379 19.6289 21.4375 19.7912 21.4375 19.9688V22.3125H17.4062V16.6617C17.4062 15.7092 18.1208 14.9192 19.0717 14.8238C19.0764 14.8225 21.3885 14.473 22.5343 13.3271L23.5872 12.2747C23.8555 12.0064 24.2394 11.9388 24.5621 12.0532H24.5621C24.5623 12.0532 24.5624 12.0533 24.5626 12.0533C24.9364 12.1855 25.1875 12.5408 25.1875 12.9375C25.1875 13.1877 25.0899 13.4231 24.9128 13.6003L22.5123 16.0013C22.3292 16.1843 22.3293 16.4811 22.5123 16.6642C22.6953 16.8472 22.9922 16.8472 23.1752 16.6641L25.5757 14.2632C25.9299 13.9089 26.125 13.4381 26.125 12.9375C26.125 12.2607 25.7592 11.6444 25.1875 11.3138V7.3125C25.1875 6.79556 25.6081 6.375 26.125 6.375C26.6419 6.375 27.0625 6.79556 27.0625 7.3125V13.68C27.0625 14.5376 26.8461 15.3891 26.4366 16.1423C26.3129 16.3697 26.397 16.6543 26.6245 16.778C26.8519 16.9016 27.1366 16.8175 27.2602 16.59C27.7442 15.6999 28 14.6936 28 13.68V7.3125C28 6.27863 27.1589 5.4375 26.125 5.4375Z" fill="#84BE51"/>
</g>
<defs>
<filter id="filter0_d_25_1122" x="0" y="0" width="32" height="32" filterUnits="userSpaceOnUse" color-interpolation-filters="sRGB">
<feFlood flood-opacity="0" result="BackgroundImageFix"/>
<feColorMatrix in="SourceAlpha" type="matrix" values="0 0 0 0 0 0 0 0 0 0 0 0 0 0 0 0 0 0 127 0" result="hardAlpha"/>
<feOffset dy="4"/>
<feGaussianBlur stdDeviation="2"/>
<feComposite in2="hardAlpha" operator="out"/>
<feColorMatrix type="matrix" values="0 0 0 0 0 0 0 0 0 0 0 0 0 0 0 0 0 0 0.25 0"/>
<feBlend mode="normal" in2="BackgroundImageFix" result="effect1_dropShadow_25_1122"/>
<feBlend mode="normal" in="SourceGraphic" in2="effect1_dropShadow_25_1122" result="shape"/>
</filter>
<clipPath id="clip0_25_1122">
<rect width="24" height="24" fill="white" transform="translate(4)"/>
</clipPath>
</defs>
</svg>
